<mxfile host="app.diagrams.net" modified="2023-07-19T18:33:25.284Z" agent="Mozilla/5.0 (Windows NT 10.0; Win64; x64) AppleWebKit/537.36 (KHTML, like Gecko) Chrome/114.0.0.0 Safari/537.36" etag="nW9PYE36iZBASzST9Gt0" version="21.5.0" type="github" pages="3">
  <diagram name="Infrastructure" id="HLZzKGmtym6T_eWyj0DS">
    <mxGraphModel dx="1687" dy="-22" grid="1" gridSize="10" guides="1" tooltips="1" connect="1" arrows="1" fold="1" page="1" pageScale="1" pageWidth="850" pageHeight="1100" math="0" shadow="0">
      <root>
        <mxCell id="0" />
        <mxCell id="1" parent="0" />
        <mxCell id="xAH5ikVLKNmr44iYhBNv-109" value="&lt;b&gt;Google &lt;/b&gt;Cloud Platform" style="fillColor=#F6F6F6;strokeColor=#808080;shadow=0;gradientColor=none;fontSize=14;align=left;spacing=10;fontColor=#717171;9E9E9E;verticalAlign=top;spacingTop=-4;fontStyle=0;spacingLeft=40;html=1;whiteSpace=wrap;" vertex="1" parent="1">
          <mxGeometry x="18" y="1240" width="812" height="930" as="geometry" />
        </mxCell>
        <mxCell id="xAH5ikVLKNmr44iYhBNv-110" value="" style="shape=mxgraph.gcp2.google_cloud_platform;fillColor=#F6F6F6;strokeColor=none;shadow=0;gradientColor=none;" vertex="1" parent="xAH5ikVLKNmr44iYhBNv-109">
          <mxGeometry width="23" height="20" relative="1" as="geometry">
            <mxPoint x="20" y="10" as="offset" />
          </mxGeometry>
        </mxCell>
        <mxCell id="WWd8fxC7PqGH166P6G4W-3" value="&lt;font color=&quot;#4d4d4d&quot; style=&quot;font-size: 16px;&quot;&gt;&lt;b style=&quot;&quot;&gt;Organization&lt;/b&gt;&lt;/font&gt;" style="sketch=0;points=[[0,0,0],[0.25,0,0],[0.5,0,0],[0.75,0,0],[1,0,0],[1,0.25,0],[1,0.5,0],[1,0.75,0],[1,1,0],[0.75,1,0],[0.5,1,0],[0.25,1,0],[0,1,0],[0,0.75,0],[0,0.5,0],[0,0.25,0]];rounded=1;absoluteArcSize=1;arcSize=2;html=1;strokeColor=none;gradientColor=none;shadow=0;dashed=0;fontSize=12;fontColor=#9E9E9E;align=left;verticalAlign=top;spacing=10;spacingTop=-4;whiteSpace=wrap;fillColor=#E1F5FE;" vertex="1" parent="1">
          <mxGeometry x="40" y="1289.15" width="770" height="126.85" as="geometry" />
        </mxCell>
        <mxCell id="WWd8fxC7PqGH166P6G4W-4" value="&lt;font color=&quot;#4d4d4d&quot; style=&quot;font-size: 16px;&quot;&gt;&lt;b style=&quot;&quot;&gt;Folders&lt;/b&gt;&lt;/font&gt;" style="sketch=0;points=[[0,0,0],[0.25,0,0],[0.5,0,0],[0.75,0,0],[1,0,0],[1,0.25,0],[1,0.5,0],[1,0.75,0],[1,1,0],[0.75,1,0],[0.5,1,0],[0.25,1,0],[0,1,0],[0,0.75,0],[0,0.5,0],[0,0.25,0]];rounded=1;absoluteArcSize=1;arcSize=2;html=1;strokeColor=none;gradientColor=none;shadow=0;dashed=0;fontSize=12;fontColor=#9E9E9E;align=left;verticalAlign=top;spacing=10;spacingTop=-4;whiteSpace=wrap;fillColor=#F3E5F5;" vertex="1" parent="1">
          <mxGeometry x="40" y="1462.47" width="770" height="297.53" as="geometry" />
        </mxCell>
        <mxCell id="WWd8fxC7PqGH166P6G4W-5" value="&lt;b&gt;&lt;font color=&quot;#4d4d4d&quot; style=&quot;font-size: 16px;&quot;&gt;Projects&lt;/font&gt;&lt;/b&gt;" style="sketch=0;points=[[0,0,0],[0.25,0,0],[0.5,0,0],[0.75,0,0],[1,0,0],[1,0.25,0],[1,0.5,0],[1,0.75,0],[1,1,0],[0.75,1,0],[0.5,1,0],[0.25,1,0],[0,1,0],[0,0.75,0],[0,0.5,0],[0,0.25,0]];rounded=1;absoluteArcSize=1;arcSize=2;html=1;strokeColor=none;gradientColor=none;shadow=0;dashed=0;fontSize=12;fontColor=#9E9E9E;align=left;verticalAlign=top;spacing=10;spacingTop=-4;whiteSpace=wrap;fillColor=#E0F2F1;" vertex="1" parent="1">
          <mxGeometry x="40" y="1800" width="770" height="345.48" as="geometry" />
        </mxCell>
        <mxCell id="xAH5ikVLKNmr44iYhBNv-61" style="edgeStyle=orthogonalEdgeStyle;rounded=0;orthogonalLoop=1;jettySize=auto;html=1;entryX=0;entryY=0.5;entryDx=0;entryDy=0;strokeColor=#4D4D4D;dashed=1;dashPattern=1 2;" edge="1" parent="1" source="clXrXIswZuZMokSav-jR-1" target="clXrXIswZuZMokSav-jR-3">
          <mxGeometry relative="1" as="geometry">
            <Array as="points">
              <mxPoint x="123" y="1506" />
              <mxPoint x="123" y="1870" />
            </Array>
          </mxGeometry>
        </mxCell>
        <mxCell id="xAH5ikVLKNmr44iYhBNv-62" style="edgeStyle=orthogonalEdgeStyle;rounded=0;orthogonalLoop=1;jettySize=auto;html=1;entryX=0;entryY=0.5;entryDx=0;entryDy=0;strokeColor=#4D4D4D;dashed=1;dashPattern=1 2;" edge="1" parent="1" source="clXrXIswZuZMokSav-jR-1" target="xAH5ikVLKNmr44iYhBNv-9">
          <mxGeometry relative="1" as="geometry">
            <Array as="points">
              <mxPoint x="123" y="1506" />
              <mxPoint x="123" y="1920" />
            </Array>
          </mxGeometry>
        </mxCell>
        <mxCell id="xAH5ikVLKNmr44iYhBNv-63" style="edgeStyle=orthogonalEdgeStyle;rounded=0;orthogonalLoop=1;jettySize=auto;html=1;entryX=0;entryY=0.5;entryDx=0;entryDy=0;strokeColor=#4D4D4D;dashed=1;dashPattern=1 2;" edge="1" parent="1" source="clXrXIswZuZMokSav-jR-1" target="xAH5ikVLKNmr44iYhBNv-12">
          <mxGeometry relative="1" as="geometry">
            <Array as="points">
              <mxPoint x="123" y="1506" />
              <mxPoint x="123" y="1970" />
            </Array>
          </mxGeometry>
        </mxCell>
        <mxCell id="xAH5ikVLKNmr44iYhBNv-64" style="edgeStyle=orthogonalEdgeStyle;rounded=0;orthogonalLoop=1;jettySize=auto;html=1;entryX=0;entryY=0.5;entryDx=0;entryDy=0;strokeColor=#4D4D4D;dashed=1;dashPattern=1 2;" edge="1" parent="1" source="clXrXIswZuZMokSav-jR-1" target="xAH5ikVLKNmr44iYhBNv-16">
          <mxGeometry relative="1" as="geometry">
            <Array as="points">
              <mxPoint x="123" y="1506" />
              <mxPoint x="123" y="2020" />
            </Array>
          </mxGeometry>
        </mxCell>
        <mxCell id="clXrXIswZuZMokSav-jR-1" value="&lt;font color=&quot;#4d4d4d&quot;&gt;&lt;span style=&quot;font-size: 14px;&quot;&gt;&lt;b&gt;oss&lt;br&gt;&lt;/b&gt;&lt;/span&gt;&lt;/font&gt;" style="sketch=0;aspect=fixed;pointerEvents=1;shadow=0;dashed=0;html=1;strokeColor=none;labelPosition=center;verticalLabelPosition=bottom;verticalAlign=top;align=center;fillColor=#00188D;shape=mxgraph.mscae.enterprise.folder" vertex="1" parent="1">
          <mxGeometry x="165.00000000000003" y="1484" width="50" height="43" as="geometry" />
        </mxCell>
        <mxCell id="xAH5ikVLKNmr44iYhBNv-105" style="edgeStyle=orthogonalEdgeStyle;rounded=0;orthogonalLoop=1;jettySize=auto;html=1;entryX=0.4;entryY=0;entryDx=0;entryDy=0;entryPerimeter=0;" edge="1" parent="1" source="clXrXIswZuZMokSav-jR-2" target="clXrXIswZuZMokSav-jR-1">
          <mxGeometry relative="1" as="geometry">
            <Array as="points">
              <mxPoint x="381" y="1390" />
              <mxPoint x="185" y="1390" />
            </Array>
          </mxGeometry>
        </mxCell>
        <mxCell id="xAH5ikVLKNmr44iYhBNv-106" style="edgeStyle=orthogonalEdgeStyle;rounded=0;orthogonalLoop=1;jettySize=auto;html=1;entryX=0.4;entryY=0;entryDx=0;entryDy=0;entryPerimeter=0;" edge="1" parent="1" source="clXrXIswZuZMokSav-jR-2" target="clXrXIswZuZMokSav-jR-14">
          <mxGeometry relative="1" as="geometry">
            <Array as="points">
              <mxPoint x="381" y="1390" />
              <mxPoint x="314" y="1390" />
            </Array>
          </mxGeometry>
        </mxCell>
        <mxCell id="xAH5ikVLKNmr44iYhBNv-107" style="edgeStyle=orthogonalEdgeStyle;rounded=0;orthogonalLoop=1;jettySize=auto;html=1;entryX=0.4;entryY=0;entryDx=0;entryDy=0;entryPerimeter=0;" edge="1" parent="1" source="clXrXIswZuZMokSav-jR-2" target="xAH5ikVLKNmr44iYhBNv-91">
          <mxGeometry relative="1" as="geometry">
            <Array as="points">
              <mxPoint x="381" y="1390" />
              <mxPoint x="722" y="1390" />
            </Array>
          </mxGeometry>
        </mxCell>
        <mxCell id="xAH5ikVLKNmr44iYhBNv-108" style="edgeStyle=orthogonalEdgeStyle;rounded=0;orthogonalLoop=1;jettySize=auto;html=1;entryX=0.4;entryY=0;entryDx=0;entryDy=0;entryPerimeter=0;" edge="1" parent="1" source="clXrXIswZuZMokSav-jR-2" target="xAH5ikVLKNmr44iYhBNv-74">
          <mxGeometry relative="1" as="geometry">
            <Array as="points">
              <mxPoint x="381" y="1390" />
              <mxPoint x="518" y="1390" />
            </Array>
          </mxGeometry>
        </mxCell>
        <mxCell id="clXrXIswZuZMokSav-jR-2" value="" style="sketch=0;outlineConnect=0;fontColor=#232F3E;gradientColor=none;fillColor=#232F3D;strokeColor=none;dashed=0;verticalLabelPosition=bottom;verticalAlign=top;align=center;html=1;fontSize=12;fontStyle=0;aspect=fixed;pointerEvents=1;shape=mxgraph.aws4.office_building;" vertex="1" parent="1">
          <mxGeometry x="355.69230769230774" y="1296" width="50" height="78" as="geometry" />
        </mxCell>
        <mxCell id="clXrXIswZuZMokSav-jR-42" style="edgeStyle=orthogonalEdgeStyle;rounded=0;orthogonalLoop=1;jettySize=auto;html=1;exitX=0;exitY=0.5;exitDx=0;exitDy=0;exitPerimeter=0;entryX=0;entryY=0.5;entryDx=0;entryDy=0;entryPerimeter=0;" edge="1" parent="1" source="clXrXIswZuZMokSav-jR-14" target="clXrXIswZuZMokSav-jR-27">
          <mxGeometry relative="1" as="geometry">
            <Array as="points">
              <mxPoint x="265.55384615384617" y="1506" />
              <mxPoint x="265.55384615384617" y="1602" />
            </Array>
          </mxGeometry>
        </mxCell>
        <mxCell id="clXrXIswZuZMokSav-jR-44" style="edgeStyle=orthogonalEdgeStyle;rounded=0;orthogonalLoop=1;jettySize=auto;html=1;entryX=0.018;entryY=0.667;entryDx=0;entryDy=0;entryPerimeter=0;exitX=0;exitY=0.5;exitDx=0;exitDy=0;exitPerimeter=0;" edge="1" parent="1" source="clXrXIswZuZMokSav-jR-14" target="clXrXIswZuZMokSav-jR-41">
          <mxGeometry relative="1" as="geometry">
            <mxPoint x="278.41538461538437" y="1523.5" as="sourcePoint" />
            <mxPoint x="300.63076923076926" y="1679.5" as="targetPoint" />
            <Array as="points">
              <mxPoint x="265.55384615384617" y="1506" />
              <mxPoint x="265.55384615384617" y="1690" />
            </Array>
          </mxGeometry>
        </mxCell>
        <mxCell id="xAH5ikVLKNmr44iYhBNv-68" style="edgeStyle=orthogonalEdgeStyle;rounded=0;orthogonalLoop=1;jettySize=auto;html=1;strokeColor=#4D4D4D;dashed=1;dashPattern=1 2;" edge="1" parent="1" source="clXrXIswZuZMokSav-jR-14" target="xAH5ikVLKNmr44iYhBNv-32">
          <mxGeometry relative="1" as="geometry">
            <mxPoint x="410" y="2021" as="targetPoint" />
            <Array as="points">
              <mxPoint x="443" y="1506" />
              <mxPoint x="443" y="2020" />
            </Array>
          </mxGeometry>
        </mxCell>
        <mxCell id="clXrXIswZuZMokSav-jR-14" value="&lt;font color=&quot;#4d4d4d&quot; style=&quot;font-size: 14px;&quot;&gt;&lt;b&gt;shd-prd&lt;/b&gt;&lt;/font&gt;" style="sketch=0;aspect=fixed;pointerEvents=1;shadow=0;dashed=0;html=1;strokeColor=none;labelPosition=center;verticalLabelPosition=bottom;verticalAlign=top;align=center;fillColor=#00188D;shape=mxgraph.mscae.enterprise.folder" vertex="1" parent="1">
          <mxGeometry x="293.6153846153847" y="1484" width="50" height="43" as="geometry" />
        </mxCell>
        <mxCell id="clXrXIswZuZMokSav-jR-15" value="&lt;b&gt;&lt;font color=&quot;#4d4d4d&quot; style=&quot;font-size: 14px;&quot;&gt;gtz4all.org&lt;/font&gt;&lt;/b&gt;" style="text;html=1;strokeColor=none;fillColor=none;align=center;verticalAlign=middle;whiteSpace=wrap;rounded=0;" vertex="1" parent="1">
          <mxGeometry x="425.84615384615387" y="1326" width="70.15384615384617" height="30" as="geometry" />
        </mxCell>
        <mxCell id="xAH5ikVLKNmr44iYhBNv-67" style="edgeStyle=orthogonalEdgeStyle;rounded=0;orthogonalLoop=1;jettySize=auto;html=1;entryX=1;entryY=0.5;entryDx=0;entryDy=0;strokeColor=#4D4D4D;dashed=1;dashPattern=1 2;" edge="1" parent="1" source="clXrXIswZuZMokSav-jR-27" target="xAH5ikVLKNmr44iYhBNv-38">
          <mxGeometry relative="1" as="geometry">
            <Array as="points">
              <mxPoint x="433" y="1602" />
              <mxPoint x="433" y="1970" />
            </Array>
          </mxGeometry>
        </mxCell>
        <mxCell id="clXrXIswZuZMokSav-jR-27" value="&lt;b style=&quot;border-color: var(--border-color); color: rgb(77, 77, 77); font-size: 14px;&quot;&gt;nov-prd&lt;/b&gt;" style="sketch=0;aspect=fixed;pointerEvents=1;shadow=0;dashed=0;html=1;strokeColor=none;labelPosition=center;verticalLabelPosition=bottom;verticalAlign=top;align=center;fillColor=#00188D;shape=mxgraph.mscae.enterprise.folder" vertex="1" parent="1">
          <mxGeometry x="308.8153846153847" y="1580" width="50" height="43" as="geometry" />
        </mxCell>
        <mxCell id="xAH5ikVLKNmr44iYhBNv-66" style="edgeStyle=orthogonalEdgeStyle;rounded=0;orthogonalLoop=1;jettySize=auto;html=1;entryX=1;entryY=0.5;entryDx=0;entryDy=0;strokeColor=#4D4D4D;dashed=1;dashPattern=1 2;" edge="1" parent="1" source="clXrXIswZuZMokSav-jR-41" target="xAH5ikVLKNmr44iYhBNv-35">
          <mxGeometry relative="1" as="geometry">
            <Array as="points">
              <mxPoint x="423" y="1683" />
              <mxPoint x="423" y="1920" />
            </Array>
          </mxGeometry>
        </mxCell>
        <mxCell id="clXrXIswZuZMokSav-jR-41" value="&lt;b style=&quot;border-color: var(--border-color); color: rgb(77, 77, 77); font-size: 14px;&quot;&gt;dec-prd&lt;/b&gt;" style="sketch=0;aspect=fixed;pointerEvents=1;shadow=0;dashed=0;html=1;strokeColor=none;labelPosition=center;verticalLabelPosition=bottom;verticalAlign=top;align=center;fillColor=#00188D;shape=mxgraph.mscae.enterprise.folder" vertex="1" parent="1">
          <mxGeometry x="308.8153846153847" y="1661.5" width="50" height="43" as="geometry" />
        </mxCell>
        <mxCell id="clXrXIswZuZMokSav-jR-46" style="edgeStyle=orthogonalEdgeStyle;rounded=0;orthogonalLoop=1;jettySize=auto;html=1;exitX=0;exitY=0.5;exitDx=0;exitDy=0;exitPerimeter=0;entryX=0;entryY=0.5;entryDx=0;entryDy=0;entryPerimeter=0;" edge="1" parent="1" target="clXrXIswZuZMokSav-jR-49">
          <mxGeometry relative="1" as="geometry">
            <Array as="points">
              <mxPoint x="532.2461538461539" y="1506" />
              <mxPoint x="532.2461538461539" y="1602" />
            </Array>
            <mxPoint x="560.3076923076924" y="1505.5" as="sourcePoint" />
          </mxGeometry>
        </mxCell>
        <mxCell id="clXrXIswZuZMokSav-jR-47" style="edgeStyle=orthogonalEdgeStyle;rounded=0;orthogonalLoop=1;jettySize=auto;html=1;entryX=0.018;entryY=0.667;entryDx=0;entryDy=0;entryPerimeter=0;exitX=0;exitY=0.5;exitDx=0;exitDy=0;exitPerimeter=0;" edge="1" parent="1" target="clXrXIswZuZMokSav-jR-50">
          <mxGeometry relative="1" as="geometry">
            <mxPoint x="560.3076923076924" y="1505.5" as="sourcePoint" />
            <mxPoint x="567.323076923077" y="1679.5" as="targetPoint" />
            <Array as="points">
              <mxPoint x="532.2461538461539" y="1506" />
              <mxPoint x="532.2461538461539" y="1690" />
            </Array>
          </mxGeometry>
        </mxCell>
        <mxCell id="xAH5ikVLKNmr44iYhBNv-7" value="" style="group;verticalAlign=middle;" vertex="1" connectable="0" parent="1">
          <mxGeometry x="140.23" y="1850" width="119.77" height="40" as="geometry" />
        </mxCell>
        <mxCell id="clXrXIswZuZMokSav-jR-3" value="&lt;font color=&quot;#4d4d4d&quot;&gt;prj-org-svs-tfstate&lt;/font&gt;" style="rounded=0;whiteSpace=wrap;html=1;strokeColor=none;" vertex="1" parent="xAH5ikVLKNmr44iYhBNv-7">
          <mxGeometry width="119.76999999999998" height="40" as="geometry" />
        </mxCell>
        <mxCell id="xAH5ikVLKNmr44iYhBNv-5" value="" style="shape=image;html=1;verticalAlign=top;verticalLabelPosition=bottom;labelBackgroundColor=#ffffff;imageAspect=0;aspect=fixed;image=https://cdn1.iconfinder.com/data/icons/user-interface-flat-5/32/Dots_vertical_more_setting_user_interface_web_app-128.png" vertex="1" parent="xAH5ikVLKNmr44iYhBNv-7">
          <mxGeometry width="19.381752331047235" height="19.381752331047235" as="geometry" />
        </mxCell>
        <mxCell id="xAH5ikVLKNmr44iYhBNv-8" value="" style="group;verticalAlign=middle;" vertex="1" connectable="0" parent="1">
          <mxGeometry x="140" y="1900" width="120" height="40" as="geometry" />
        </mxCell>
        <mxCell id="xAH5ikVLKNmr44iYhBNv-9" value="&lt;font color=&quot;#4d4d4d&quot;&gt;prj-org-svs-billing&lt;/font&gt;" style="rounded=0;whiteSpace=wrap;html=1;strokeColor=none;" vertex="1" parent="xAH5ikVLKNmr44iYhBNv-8">
          <mxGeometry width="119.99999999999999" height="40" as="geometry" />
        </mxCell>
        <mxCell id="xAH5ikVLKNmr44iYhBNv-10" value="" style="shape=image;html=1;verticalAlign=top;verticalLabelPosition=bottom;labelBackgroundColor=#ffffff;imageAspect=0;aspect=fixed;image=https://cdn1.iconfinder.com/data/icons/user-interface-flat-5/32/Dots_vertical_more_setting_user_interface_web_app-128.png" vertex="1" parent="xAH5ikVLKNmr44iYhBNv-8">
          <mxGeometry width="19.384615384615387" height="19.384615384615387" as="geometry" />
        </mxCell>
        <mxCell id="xAH5ikVLKNmr44iYhBNv-11" value="" style="group;verticalAlign=top;horizontal=0;" vertex="1" connectable="0" parent="1">
          <mxGeometry x="140" y="1950" width="120" height="40" as="geometry" />
        </mxCell>
        <mxCell id="xAH5ikVLKNmr44iYhBNv-12" value="&lt;font color=&quot;#4d4d4d&quot;&gt;prj-org-svs-logs&lt;/font&gt;" style="rounded=0;whiteSpace=wrap;html=1;strokeColor=none;align=center;" vertex="1" parent="xAH5ikVLKNmr44iYhBNv-11">
          <mxGeometry width="120" height="40" as="geometry" />
        </mxCell>
        <mxCell id="xAH5ikVLKNmr44iYhBNv-13" value="" style="shape=image;html=1;verticalAlign=top;verticalLabelPosition=bottom;labelBackgroundColor=#ffffff;imageAspect=0;aspect=fixed;image=https://cdn1.iconfinder.com/data/icons/user-interface-flat-5/32/Dots_vertical_more_setting_user_interface_web_app-128.png" vertex="1" parent="xAH5ikVLKNmr44iYhBNv-11">
          <mxGeometry width="19.384615384615387" height="19.384615384615387" as="geometry" />
        </mxCell>
        <mxCell id="xAH5ikVLKNmr44iYhBNv-15" value="" style="group;verticalAlign=middle;" vertex="1" connectable="0" parent="1">
          <mxGeometry x="140" y="2000" width="120" height="40" as="geometry" />
        </mxCell>
        <mxCell id="xAH5ikVLKNmr44iYhBNv-16" value="&lt;font color=&quot;#4d4d4d&quot;&gt;prj-org-svs-billing&lt;/font&gt;" style="rounded=0;whiteSpace=wrap;html=1;strokeColor=none;" vertex="1" parent="xAH5ikVLKNmr44iYhBNv-15">
          <mxGeometry width="120" height="40" as="geometry" />
        </mxCell>
        <mxCell id="xAH5ikVLKNmr44iYhBNv-17" value="" style="shape=image;html=1;verticalAlign=top;verticalLabelPosition=bottom;labelBackgroundColor=#ffffff;imageAspect=0;aspect=fixed;image=https://cdn1.iconfinder.com/data/icons/user-interface-flat-5/32/Dots_vertical_more_setting_user_interface_web_app-128.png" vertex="1" parent="xAH5ikVLKNmr44iYhBNv-15">
          <mxGeometry width="19.384615384615387" height="19.384615384615387" as="geometry" />
        </mxCell>
        <mxCell id="xAH5ikVLKNmr44iYhBNv-31" value="" style="group" vertex="1" connectable="0" parent="1">
          <mxGeometry x="283.23" y="2001" width="119.77" height="40" as="geometry" />
        </mxCell>
        <mxCell id="xAH5ikVLKNmr44iYhBNv-32" value="&lt;font color=&quot;#4d4d4d&quot;&gt;prj-shd-prd-host01&lt;/font&gt;" style="rounded=0;whiteSpace=wrap;html=1;strokeColor=none;" vertex="1" parent="xAH5ikVLKNmr44iYhBNv-31">
          <mxGeometry width="119.76999999999998" height="40" as="geometry" />
        </mxCell>
        <mxCell id="xAH5ikVLKNmr44iYhBNv-33" value="" style="shape=image;html=1;verticalAlign=top;verticalLabelPosition=bottom;labelBackgroundColor=#ffffff;imageAspect=0;aspect=fixed;image=https://cdn1.iconfinder.com/data/icons/user-interface-flat-5/32/Dots_vertical_more_setting_user_interface_web_app-128.png" vertex="1" parent="xAH5ikVLKNmr44iYhBNv-31">
          <mxGeometry width="19.381752331047235" height="19.381752331047235" as="geometry" />
        </mxCell>
        <mxCell id="xAH5ikVLKNmr44iYhBNv-34" value="" style="group" vertex="1" connectable="0" parent="1">
          <mxGeometry x="283" y="1900" width="120" height="40" as="geometry" />
        </mxCell>
        <mxCell id="xAH5ikVLKNmr44iYhBNv-35" value="&lt;font color=&quot;#4d4d4d&quot;&gt;prj-nov-prd-app01&lt;/font&gt;" style="rounded=0;whiteSpace=wrap;html=1;strokeColor=none;" vertex="1" parent="xAH5ikVLKNmr44iYhBNv-34">
          <mxGeometry width="119.99999999999999" height="40" as="geometry" />
        </mxCell>
        <mxCell id="xAH5ikVLKNmr44iYhBNv-36" value="" style="shape=image;html=1;verticalAlign=top;verticalLabelPosition=bottom;labelBackgroundColor=#ffffff;imageAspect=0;aspect=fixed;image=https://cdn1.iconfinder.com/data/icons/user-interface-flat-5/32/Dots_vertical_more_setting_user_interface_web_app-128.png" vertex="1" parent="xAH5ikVLKNmr44iYhBNv-34">
          <mxGeometry width="19.384615384615387" height="19.384615384615387" as="geometry" />
        </mxCell>
        <mxCell id="xAH5ikVLKNmr44iYhBNv-37" value="" style="group" vertex="1" connectable="0" parent="1">
          <mxGeometry x="283" y="1950" width="120" height="40" as="geometry" />
        </mxCell>
        <mxCell id="xAH5ikVLKNmr44iYhBNv-38" value="&lt;font color=&quot;#4d4d4d&quot;&gt;prj-dec-prd-app01&lt;/font&gt;" style="rounded=0;whiteSpace=wrap;html=1;strokeColor=none;" vertex="1" parent="xAH5ikVLKNmr44iYhBNv-37">
          <mxGeometry width="120" height="40" as="geometry" />
        </mxCell>
        <mxCell id="xAH5ikVLKNmr44iYhBNv-39" value="" style="shape=image;html=1;verticalAlign=top;verticalLabelPosition=bottom;labelBackgroundColor=#ffffff;imageAspect=0;aspect=fixed;image=https://cdn1.iconfinder.com/data/icons/user-interface-flat-5/32/Dots_vertical_more_setting_user_interface_web_app-128.png" vertex="1" parent="xAH5ikVLKNmr44iYhBNv-37">
          <mxGeometry width="19.384615384615387" height="19.384615384615387" as="geometry" />
        </mxCell>
        <mxCell id="xAH5ikVLKNmr44iYhBNv-71" style="edgeStyle=orthogonalEdgeStyle;rounded=0;orthogonalLoop=1;jettySize=auto;html=1;exitX=0;exitY=0.5;exitDx=0;exitDy=0;exitPerimeter=0;entryX=0;entryY=0.5;entryDx=0;entryDy=0;entryPerimeter=0;" edge="1" parent="1" source="xAH5ikVLKNmr44iYhBNv-74" target="xAH5ikVLKNmr44iYhBNv-76">
          <mxGeometry relative="1" as="geometry">
            <Array as="points">
              <mxPoint x="469.55384615384617" y="1507" />
              <mxPoint x="469.55384615384617" y="1603" />
            </Array>
          </mxGeometry>
        </mxCell>
        <mxCell id="xAH5ikVLKNmr44iYhBNv-72" style="edgeStyle=orthogonalEdgeStyle;rounded=0;orthogonalLoop=1;jettySize=auto;html=1;entryX=0.018;entryY=0.667;entryDx=0;entryDy=0;entryPerimeter=0;exitX=0;exitY=0.5;exitDx=0;exitDy=0;exitPerimeter=0;" edge="1" parent="1" source="xAH5ikVLKNmr44iYhBNv-74" target="xAH5ikVLKNmr44iYhBNv-78">
          <mxGeometry relative="1" as="geometry">
            <mxPoint x="482.41538461538437" y="1524.5" as="sourcePoint" />
            <mxPoint x="504.63076923076926" y="1680.5" as="targetPoint" />
            <Array as="points">
              <mxPoint x="469.55384615384617" y="1507" />
              <mxPoint x="469.55384615384617" y="1691" />
            </Array>
          </mxGeometry>
        </mxCell>
        <mxCell id="xAH5ikVLKNmr44iYhBNv-73" style="edgeStyle=orthogonalEdgeStyle;rounded=0;orthogonalLoop=1;jettySize=auto;html=1;strokeColor=#4D4D4D;dashed=1;dashPattern=1 2;" edge="1" parent="1" source="xAH5ikVLKNmr44iYhBNv-74" target="xAH5ikVLKNmr44iYhBNv-80">
          <mxGeometry relative="1" as="geometry">
            <Array as="points">
              <mxPoint x="647" y="1507" />
              <mxPoint x="647" y="2020" />
            </Array>
          </mxGeometry>
        </mxCell>
        <mxCell id="xAH5ikVLKNmr44iYhBNv-74" value="&lt;font color=&quot;#4d4d4d&quot; style=&quot;font-size: 14px;&quot;&gt;&lt;b&gt;shd-npr&lt;/b&gt;&lt;/font&gt;" style="sketch=0;aspect=fixed;pointerEvents=1;shadow=0;dashed=0;html=1;strokeColor=none;labelPosition=center;verticalLabelPosition=bottom;verticalAlign=top;align=center;fillColor=#00188D;shape=mxgraph.mscae.enterprise.folder" vertex="1" parent="1">
          <mxGeometry x="497.61538461538476" y="1485" width="50" height="43" as="geometry" />
        </mxCell>
        <mxCell id="xAH5ikVLKNmr44iYhBNv-75" style="edgeStyle=orthogonalEdgeStyle;rounded=0;orthogonalLoop=1;jettySize=auto;html=1;strokeColor=#4D4D4D;dashed=1;dashPattern=1 2;" edge="1" parent="1" source="xAH5ikVLKNmr44iYhBNv-76" target="xAH5ikVLKNmr44iYhBNv-86">
          <mxGeometry relative="1" as="geometry">
            <Array as="points">
              <mxPoint x="637" y="1603" />
              <mxPoint x="637" y="1970" />
            </Array>
          </mxGeometry>
        </mxCell>
        <mxCell id="xAH5ikVLKNmr44iYhBNv-76" value="&lt;b style=&quot;border-color: var(--border-color); color: rgb(77, 77, 77); font-size: 14px;&quot;&gt;nov-npr&lt;/b&gt;" style="sketch=0;aspect=fixed;pointerEvents=1;shadow=0;dashed=0;html=1;strokeColor=none;labelPosition=center;verticalLabelPosition=bottom;verticalAlign=top;align=center;fillColor=#00188D;shape=mxgraph.mscae.enterprise.folder" vertex="1" parent="1">
          <mxGeometry x="512.8153846153847" y="1581" width="50" height="43" as="geometry" />
        </mxCell>
        <mxCell id="xAH5ikVLKNmr44iYhBNv-77" style="edgeStyle=orthogonalEdgeStyle;rounded=0;orthogonalLoop=1;jettySize=auto;html=1;strokeColor=#4D4D4D;dashed=1;dashPattern=1 2;" edge="1" parent="1" source="xAH5ikVLKNmr44iYhBNv-78" target="xAH5ikVLKNmr44iYhBNv-83">
          <mxGeometry relative="1" as="geometry">
            <Array as="points">
              <mxPoint x="627" y="1684" />
              <mxPoint x="627" y="1920" />
            </Array>
          </mxGeometry>
        </mxCell>
        <mxCell id="xAH5ikVLKNmr44iYhBNv-78" value="&lt;b style=&quot;border-color: var(--border-color); color: rgb(77, 77, 77); font-size: 14px;&quot;&gt;dec-npr&lt;/b&gt;" style="sketch=0;aspect=fixed;pointerEvents=1;shadow=0;dashed=0;html=1;strokeColor=none;labelPosition=center;verticalLabelPosition=bottom;verticalAlign=top;align=center;fillColor=#00188D;shape=mxgraph.mscae.enterprise.folder" vertex="1" parent="1">
          <mxGeometry x="512.8153846153847" y="1662.5" width="50" height="43" as="geometry" />
        </mxCell>
        <mxCell id="xAH5ikVLKNmr44iYhBNv-79" value="" style="group" vertex="1" connectable="0" parent="1">
          <mxGeometry x="487.23" y="2002" width="119.77" height="40" as="geometry" />
        </mxCell>
        <mxCell id="xAH5ikVLKNmr44iYhBNv-80" value="&lt;font color=&quot;#4d4d4d&quot;&gt;prj-shd-npr-host01&lt;/font&gt;" style="rounded=0;whiteSpace=wrap;html=1;strokeColor=none;" vertex="1" parent="xAH5ikVLKNmr44iYhBNv-79">
          <mxGeometry width="119.76999999999998" height="40" as="geometry" />
        </mxCell>
        <mxCell id="xAH5ikVLKNmr44iYhBNv-81" value="" style="shape=image;html=1;verticalAlign=top;verticalLabelPosition=bottom;labelBackgroundColor=#ffffff;imageAspect=0;aspect=fixed;image=https://cdn1.iconfinder.com/data/icons/user-interface-flat-5/32/Dots_vertical_more_setting_user_interface_web_app-128.png" vertex="1" parent="xAH5ikVLKNmr44iYhBNv-79">
          <mxGeometry width="19.381752331047235" height="19.381752331047235" as="geometry" />
        </mxCell>
        <mxCell id="xAH5ikVLKNmr44iYhBNv-82" value="" style="group" vertex="1" connectable="0" parent="1">
          <mxGeometry x="487" y="1901" width="120" height="40" as="geometry" />
        </mxCell>
        <mxCell id="xAH5ikVLKNmr44iYhBNv-83" value="&lt;font color=&quot;#4d4d4d&quot;&gt;prj-nov-npr-app01&lt;/font&gt;" style="rounded=0;whiteSpace=wrap;html=1;strokeColor=none;" vertex="1" parent="xAH5ikVLKNmr44iYhBNv-82">
          <mxGeometry width="119.99999999999999" height="40" as="geometry" />
        </mxCell>
        <mxCell id="xAH5ikVLKNmr44iYhBNv-84" value="" style="shape=image;html=1;verticalAlign=top;verticalLabelPosition=bottom;labelBackgroundColor=#ffffff;imageAspect=0;aspect=fixed;image=https://cdn1.iconfinder.com/data/icons/user-interface-flat-5/32/Dots_vertical_more_setting_user_interface_web_app-128.png" vertex="1" parent="xAH5ikVLKNmr44iYhBNv-82">
          <mxGeometry width="19.384615384615387" height="19.384615384615387" as="geometry" />
        </mxCell>
        <mxCell id="xAH5ikVLKNmr44iYhBNv-85" value="" style="group" vertex="1" connectable="0" parent="1">
          <mxGeometry x="487" y="1951" width="120" height="40" as="geometry" />
        </mxCell>
        <mxCell id="xAH5ikVLKNmr44iYhBNv-86" value="&lt;font color=&quot;#4d4d4d&quot;&gt;prj-dec-npr-app01&lt;/font&gt;" style="rounded=0;whiteSpace=wrap;html=1;strokeColor=none;" vertex="1" parent="xAH5ikVLKNmr44iYhBNv-85">
          <mxGeometry width="120" height="40" as="geometry" />
        </mxCell>
        <mxCell id="xAH5ikVLKNmr44iYhBNv-87" value="" style="shape=image;html=1;verticalAlign=top;verticalLabelPosition=bottom;labelBackgroundColor=#ffffff;imageAspect=0;aspect=fixed;image=https://cdn1.iconfinder.com/data/icons/user-interface-flat-5/32/Dots_vertical_more_setting_user_interface_web_app-128.png" vertex="1" parent="xAH5ikVLKNmr44iYhBNv-85">
          <mxGeometry width="19.384615384615387" height="19.384615384615387" as="geometry" />
        </mxCell>
        <mxCell id="xAH5ikVLKNmr44iYhBNv-91" value="&lt;font color=&quot;#4d4d4d&quot; style=&quot;font-size: 14px;&quot;&gt;&lt;b&gt;shd-sbx&lt;/b&gt;&lt;/font&gt;" style="sketch=0;aspect=fixed;pointerEvents=1;shadow=0;dashed=0;html=1;strokeColor=none;labelPosition=center;verticalLabelPosition=bottom;verticalAlign=top;align=center;fillColor=#00188D;shape=mxgraph.mscae.enterprise.folder" vertex="1" parent="1">
          <mxGeometry x="701.6153846153848" y="1485" width="50" height="43" as="geometry" />
        </mxCell>
      </root>
    </mxGraphModel>
  </diagram>
  <diagram name="Access Management" id="KP9ZjzljKvlsMgMkyH7f">
    <mxGraphModel dx="1687" dy="228" grid="1" gridSize="10" guides="1" tooltips="1" connect="1" arrows="1" fold="1" page="1" pageScale="1" pageWidth="1100" pageHeight="850" math="0" shadow="0">
      <root>
        <mxCell id="nzy5NqVIEp9yvjNZTizk-0" />
        <mxCell id="nzy5NqVIEp9yvjNZTizk-1" parent="nzy5NqVIEp9yvjNZTizk-0" />
        <mxCell id="nzy5NqVIEp9yvjNZTizk-2" value="&lt;b&gt;Google &lt;/b&gt;Cloud Platform" style="fillColor=#F6F6F6;strokeColor=#808080;shadow=0;gradientColor=none;fontSize=14;align=left;spacing=10;fontColor=#717171;9E9E9E;verticalAlign=top;spacingTop=-4;fontStyle=0;spacingLeft=40;html=1;whiteSpace=wrap;" vertex="1" parent="nzy5NqVIEp9yvjNZTizk-1">
          <mxGeometry x="320" y="918.5" width="740" height="521.5" as="geometry" />
        </mxCell>
        <mxCell id="nzy5NqVIEp9yvjNZTizk-3" value="" style="shape=mxgraph.gcp2.google_cloud_platform;fillColor=#F6F6F6;strokeColor=none;shadow=0;gradientColor=none;" vertex="1" parent="nzy5NqVIEp9yvjNZTizk-2">
          <mxGeometry width="23" height="20" relative="1" as="geometry">
            <mxPoint x="20" y="10" as="offset" />
          </mxGeometry>
        </mxCell>
        <mxCell id="nzy5NqVIEp9yvjNZTizk-6" value="&lt;b&gt;&lt;font color=&quot;#4d4d4d&quot; style=&quot;font-size: 16px;&quot;&gt;Service Accounts&lt;/font&gt;&lt;/b&gt;" style="sketch=0;points=[[0,0,0],[0.25,0,0],[0.5,0,0],[0.75,0,0],[1,0,0],[1,0.25,0],[1,0.5,0],[1,0.75,0],[1,1,0],[0.75,1,0],[0.5,1,0],[0.25,1,0],[0,1,0],[0,0.75,0],[0,0.5,0],[0,0.25,0]];rounded=1;absoluteArcSize=1;arcSize=2;html=1;strokeColor=none;gradientColor=none;shadow=0;dashed=0;fontSize=12;fontColor=#9E9E9E;align=left;verticalAlign=top;spacing=10;spacingTop=-4;whiteSpace=wrap;fillColor=#E0F2F1;" vertex="1" parent="nzy5NqVIEp9yvjNZTizk-2">
          <mxGeometry x="29.816849816849818" y="50.89391397849462" width="447.25274725274727" height="193.72883870967743" as="geometry" />
        </mxCell>
        <mxCell id="nzy5NqVIEp9yvjNZTizk-5" value="&lt;font color=&quot;#333333&quot; style=&quot;font-size: 14px;&quot;&gt;&lt;span style=&quot;white-space: pre;&quot;&gt;&#x9;&lt;/span&gt;Cloud &lt;br&gt;&lt;span style=&quot;white-space: pre;&quot;&gt;&#x9;&lt;/span&gt;Identity&lt;/font&gt;" style="sketch=0;points=[[0,0,0],[0.25,0,0],[0.5,0,0],[0.75,0,0],[1,0,0],[1,0.25,0],[1,0.5,0],[1,0.75,0],[1,1,0],[0.75,1,0],[0.5,1,0],[0.25,1,0],[0,1,0],[0,0.75,0],[0,0.5,0],[0,0.25,0]];rounded=1;absoluteArcSize=1;arcSize=2;html=1;strokeColor=#808080;gradientColor=none;shadow=0;dashed=0;fontSize=12;fontColor=#9E9E9E;align=left;verticalAlign=top;spacing=10;spacingTop=-4;whiteSpace=wrap;fillColor=#F3E5F5;" vertex="1" parent="nzy5NqVIEp9yvjNZTizk-1">
          <mxGeometry x="40" y="918.5" width="194" height="513" as="geometry" />
        </mxCell>
        <mxCell id="nzy5NqVIEp9yvjNZTizk-26" style="edgeStyle=orthogonalEdgeStyle;rounded=0;orthogonalLoop=1;jettySize=auto;html=1;exitX=0;exitY=0.5;exitDx=0;exitDy=0;exitPerimeter=0;entryX=0;entryY=0.5;entryDx=0;entryDy=0;entryPerimeter=0;" edge="1" parent="nzy5NqVIEp9yvjNZTizk-1">
          <mxGeometry relative="1" as="geometry">
            <Array as="points">
              <mxPoint x="532.2461538461539" y="1506" />
              <mxPoint x="532.2461538461539" y="1602" />
            </Array>
            <mxPoint x="560.3076923076924" y="1505.5" as="sourcePoint" />
          </mxGeometry>
        </mxCell>
        <mxCell id="xisQ62mnSMioUk2DunuP-0" value="" style="editableCssRules=.*;html=1;shape=image;verticalLabelPosition=bottom;labelBackgroundColor=#ffffff;verticalAlign=top;aspect=fixed;imageAspect=0;image=data:image/svg+xml,PHN2ZyB4bWxucz0iaHR0cDovL3d3dy53My5vcmcvMjAwMC9zdmciIHhtbG5zOnY9Imh0dHBzOi8vdmVjdGEuaW8vbmFubyIgd2lkdGg9IjE2LjQyMDAwMDA3NjI5Mzk0NSIgaGVpZ2h0PSIyMC4wNDk5OTkyMzcwNjA1NDciIGZpbGwtcnVsZT0iZXZlbm9kZCIgdmlld0JveD0iMCAwIDE2LjQyMDAwMDA3NjI5Mzk0NSAyMC4wNDk5OTkyMzcwNjA1NDciPiYjeGE7CTxzdHlsZSB0eXBlPSJ0ZXh0L2NzcyI+JiN4YTsJLnN0MHtmaWxsOiM0Mjg1ZjQ7fSYjeGE7CS5zdDF7ZmlsbDojNjY5ZGY2O30mI3hhOwk8L3N0eWxlPiYjeGE7CTxwYXRoIGNsYXNzPSJzdDEiIGQ9Ik04LjIxIDBMMCAzLjQydjUuNjNjMCA1LjA2IDMuNSA5LjggOC4yMSAxMSA0LjcxLTEuMTUgOC4yMS01Ljg5IDguMjEtMTAuOTVWMy40MnptMCAzLjc5YTIuNjMgMi42MyAwIDAgMSAxLjAwNSA1LjA2QTIuNjMgMi42MyAwIDAgMSA2LjM1IDQuNTZhMi42MyAyLjYzIDAgMCAxIDEuODYtLjc3em00LjExIDExLjE1YTguNjQgOC42NCAwIDAgMS00LjExIDIuOTMgOC42NCA4LjY0IDAgMCAxLTQuMTEtMi45M3YtMi4yNWMwLTEuNjcgMi43NC0yLjUyIDQuMTEtMi41MnM0LjExLjg1IDQuMTEgMi41MnoiLz4mI3hhOwk8cGF0aCBjbGFzcz0ic3QwIiBkPSJNOC4yMSAwdjMuNzlhMi42MyAyLjYzIDAgMSAxIDAgNS4yNnYxLjEyYzEuMzcgMCA0LjExLjg1IDQuMTEgMi41MnYyLjI1YTguNjQgOC42NCAwIDAgMS00LjExIDIuOTNWMjBjNC43MS0xLjE1IDguMjEtNS44OSA4LjIxLTEwLjk1VjMuNDJ6Ii8+JiN4YTs8L3N2Zz4=;" vertex="1" parent="nzy5NqVIEp9yvjNZTizk-1">
          <mxGeometry x="44" y="921.5" width="32" height="40" as="geometry" />
        </mxCell>
        <mxCell id="xisQ62mnSMioUk2DunuP-8" value="" style="group" vertex="1" connectable="0" parent="nzy5NqVIEp9yvjNZTizk-1">
          <mxGeometry x="54" y="1001.5" width="130" height="80" as="geometry" />
        </mxCell>
        <mxCell id="xisQ62mnSMioUk2DunuP-7" value="&lt;b&gt;&lt;font color=&quot;#4d4d4d&quot;&gt;Group 1&lt;/font&gt;&lt;/b&gt;" style="rounded=0;whiteSpace=wrap;html=1;verticalAlign=top;fillColor=#dae8fc;strokeColor=#6c8ebf;" vertex="1" parent="xisQ62mnSMioUk2DunuP-8">
          <mxGeometry width="120" height="60" as="geometry" />
        </mxCell>
        <mxCell id="xisQ62mnSMioUk2DunuP-5" value="" style="sketch=0;outlineConnect=0;fontColor=#232F3E;gradientColor=none;fillColor=#232F3D;strokeColor=none;dashed=0;verticalLabelPosition=bottom;verticalAlign=top;align=center;html=1;fontSize=12;fontStyle=0;aspect=fixed;pointerEvents=1;shape=mxgraph.aws4.users;" vertex="1" parent="xisQ62mnSMioUk2DunuP-8">
          <mxGeometry x="3" y="2" width="18" height="18" as="geometry" />
        </mxCell>
        <mxCell id="xisQ62mnSMioUk2DunuP-9" value="" style="group" vertex="1" connectable="0" parent="xisQ62mnSMioUk2DunuP-8">
          <mxGeometry x="10" y="23" width="120" height="60" as="geometry" />
        </mxCell>
        <mxCell id="xisQ62mnSMioUk2DunuP-10" value="&lt;b&gt;&lt;font color=&quot;#4d4d4d&quot;&gt;Group 2&lt;/font&gt;&lt;/b&gt;" style="rounded=0;whiteSpace=wrap;html=1;verticalAlign=top;fillColor=#dae8fc;strokeColor=#6c8ebf;" vertex="1" parent="xisQ62mnSMioUk2DunuP-9">
          <mxGeometry width="120" height="60" as="geometry" />
        </mxCell>
        <mxCell id="xisQ62mnSMioUk2DunuP-11" value="" style="sketch=0;outlineConnect=0;fontColor=#232F3E;gradientColor=none;fillColor=#232F3D;strokeColor=none;dashed=0;verticalLabelPosition=bottom;verticalAlign=top;align=center;html=1;fontSize=12;fontStyle=0;aspect=fixed;pointerEvents=1;shape=mxgraph.aws4.users;" vertex="1" parent="xisQ62mnSMioUk2DunuP-9">
          <mxGeometry x="3" y="2" width="18" height="18" as="geometry" />
        </mxCell>
        <mxCell id="xisQ62mnSMioUk2DunuP-12" value="" style="group" vertex="1" connectable="0" parent="nzy5NqVIEp9yvjNZTizk-1">
          <mxGeometry x="74" y="1048.5" width="130" height="80" as="geometry" />
        </mxCell>
        <mxCell id="xisQ62mnSMioUk2DunuP-13" value="&lt;b&gt;&lt;font color=&quot;#4d4d4d&quot;&gt;Group N&lt;/font&gt;&lt;/b&gt;" style="rounded=0;whiteSpace=wrap;html=1;verticalAlign=top;fillColor=#dae8fc;strokeColor=#6c8ebf;" vertex="1" parent="xisQ62mnSMioUk2DunuP-12">
          <mxGeometry width="120" height="60" as="geometry" />
        </mxCell>
        <mxCell id="xisQ62mnSMioUk2DunuP-14" value="" style="sketch=0;outlineConnect=0;fontColor=#232F3E;gradientColor=none;fillColor=#232F3D;strokeColor=none;dashed=0;verticalLabelPosition=bottom;verticalAlign=top;align=center;html=1;fontSize=12;fontStyle=0;aspect=fixed;pointerEvents=1;shape=mxgraph.aws4.users;" vertex="1" parent="xisQ62mnSMioUk2DunuP-12">
          <mxGeometry x="3" y="2" width="18" height="18" as="geometry" />
        </mxCell>
        <mxCell id="xisQ62mnSMioUk2DunuP-25" value="&lt;b&gt;&lt;font color=&quot;#4d4d4d&quot;&gt;User 1&lt;/font&gt;&lt;/b&gt;" style="rounded=0;whiteSpace=wrap;html=1;verticalAlign=top;fillColor=#ffe6cc;strokeColor=#d79b00;" vertex="1" parent="nzy5NqVIEp9yvjNZTizk-1">
          <mxGeometry x="54" y="1141.5" width="120" height="60" as="geometry" />
        </mxCell>
        <mxCell id="xisQ62mnSMioUk2DunuP-6" value="" style="sketch=0;outlineConnect=0;fontColor=#232F3E;gradientColor=none;fillColor=#232F3D;strokeColor=none;dashed=0;verticalLabelPosition=bottom;verticalAlign=top;align=center;html=1;fontSize=12;fontStyle=0;aspect=fixed;pointerEvents=1;shape=mxgraph.aws4.user;" vertex="1" parent="nzy5NqVIEp9yvjNZTizk-1">
          <mxGeometry x="56" y="1143.5" width="10" height="10" as="geometry" />
        </mxCell>
        <mxCell id="xisQ62mnSMioUk2DunuP-50" value="&lt;b&gt;&lt;font color=&quot;#4d4d4d&quot;&gt;User 2&lt;/font&gt;&lt;/b&gt;" style="rounded=0;whiteSpace=wrap;html=1;verticalAlign=top;fillColor=#ffe6cc;strokeColor=#d79b00;" vertex="1" parent="nzy5NqVIEp9yvjNZTizk-1">
          <mxGeometry x="64" y="1171.5" width="120" height="60" as="geometry" />
        </mxCell>
        <mxCell id="xisQ62mnSMioUk2DunuP-51" value="" style="sketch=0;outlineConnect=0;fontColor=#232F3E;gradientColor=none;fillColor=#232F3D;strokeColor=none;dashed=0;verticalLabelPosition=bottom;verticalAlign=top;align=center;html=1;fontSize=12;fontStyle=0;aspect=fixed;pointerEvents=1;shape=mxgraph.aws4.user;" vertex="1" parent="nzy5NqVIEp9yvjNZTizk-1">
          <mxGeometry x="66" y="1173.5" width="10" height="10" as="geometry" />
        </mxCell>
        <mxCell id="xisQ62mnSMioUk2DunuP-48" value="&lt;b&gt;&lt;font color=&quot;#4d4d4d&quot;&gt;User 2&lt;/font&gt;&lt;/b&gt;" style="rounded=0;whiteSpace=wrap;html=1;verticalAlign=top;fillColor=#ffe6cc;strokeColor=#d79b00;" vertex="1" parent="nzy5NqVIEp9yvjNZTizk-1">
          <mxGeometry x="74" y="1201.5" width="120" height="60" as="geometry" />
        </mxCell>
        <mxCell id="xisQ62mnSMioUk2DunuP-49" value="" style="sketch=0;outlineConnect=0;fontColor=#232F3E;gradientColor=none;fillColor=#232F3D;strokeColor=none;dashed=0;verticalLabelPosition=bottom;verticalAlign=top;align=center;html=1;fontSize=12;fontStyle=0;aspect=fixed;pointerEvents=1;shape=mxgraph.aws4.user;" vertex="1" parent="nzy5NqVIEp9yvjNZTizk-1">
          <mxGeometry x="76" y="1203.5" width="10" height="10" as="geometry" />
        </mxCell>
        <mxCell id="xisQ62mnSMioUk2DunuP-35" value="" style="group" vertex="1" connectable="0" parent="nzy5NqVIEp9yvjNZTizk-1">
          <mxGeometry x="54" y="1301.5" width="160" height="110" as="geometry" />
        </mxCell>
        <mxCell id="xisQ62mnSMioUk2DunuP-36" value="&lt;b&gt;&lt;font style=&quot;font-size: 10px;&quot; color=&quot;#4d4d4d&quot;&gt;&amp;nbsp;org-admins@gtz4all.com&lt;/font&gt;&lt;/b&gt;" style="rounded=0;whiteSpace=wrap;html=1;verticalAlign=top;fillColor=#dae8fc;strokeColor=#6c8ebf;" vertex="1" parent="xisQ62mnSMioUk2DunuP-35">
          <mxGeometry width="160" height="110" as="geometry" />
        </mxCell>
        <mxCell id="xisQ62mnSMioUk2DunuP-46" value="&lt;b style=&quot;border-color: var(--border-color);&quot;&gt;&lt;font style=&quot;border-color: var(--border-color); font-size: 10px;&quot; color=&quot;#4d4d4d&quot;&gt;&amp;nbsp;org-admin3@gtz4all.com&lt;/font&gt;&lt;/b&gt;" style="rounded=0;whiteSpace=wrap;html=1;verticalAlign=middle;fillColor=#ffe6cc;strokeColor=#d79b00;align=right;" vertex="1" parent="xisQ62mnSMioUk2DunuP-35">
          <mxGeometry x="10" y="78" width="140" height="20" as="geometry" />
        </mxCell>
        <mxCell id="xisQ62mnSMioUk2DunuP-44" value="&lt;b style=&quot;border-color: var(--border-color);&quot;&gt;&lt;font style=&quot;border-color: var(--border-color); font-size: 10px;&quot; color=&quot;#4d4d4d&quot;&gt;&amp;nbsp;org-admin2@gtz4all.com&lt;/font&gt;&lt;/b&gt;" style="rounded=0;whiteSpace=wrap;html=1;verticalAlign=middle;fillColor=#ffe6cc;strokeColor=#d79b00;align=right;" vertex="1" parent="xisQ62mnSMioUk2DunuP-35">
          <mxGeometry x="10" y="54" width="140" height="20" as="geometry" />
        </mxCell>
        <mxCell id="xisQ62mnSMioUk2DunuP-42" value="&lt;b style=&quot;border-color: var(--border-color);&quot;&gt;&lt;font style=&quot;border-color: var(--border-color); font-size: 10px;&quot; color=&quot;#4d4d4d&quot;&gt;&amp;nbsp;org-admin1@gtz4all.com&lt;/font&gt;&lt;/b&gt;" style="rounded=0;whiteSpace=wrap;html=1;verticalAlign=middle;fillColor=#ffe6cc;strokeColor=#d79b00;align=right;" vertex="1" parent="xisQ62mnSMioUk2DunuP-35">
          <mxGeometry x="10" y="30" width="140" height="20" as="geometry" />
        </mxCell>
        <mxCell id="xisQ62mnSMioUk2DunuP-37" value="" style="sketch=0;outlineConnect=0;fontColor=#232F3E;gradientColor=none;fillColor=#232F3D;strokeColor=none;dashed=0;verticalLabelPosition=bottom;verticalAlign=top;align=center;html=1;fontSize=12;fontStyle=0;aspect=fixed;pointerEvents=1;shape=mxgraph.aws4.users;" vertex="1" parent="xisQ62mnSMioUk2DunuP-35">
          <mxGeometry x="3" y="2" width="18" height="18" as="geometry" />
        </mxCell>
        <mxCell id="xisQ62mnSMioUk2DunuP-47" value="" style="sketch=0;outlineConnect=0;fontColor=#232F3E;gradientColor=none;fillColor=#232F3D;strokeColor=none;dashed=0;verticalLabelPosition=bottom;verticalAlign=top;align=right;html=1;fontSize=12;fontStyle=0;aspect=fixed;pointerEvents=1;shape=mxgraph.aws4.user;" vertex="1" parent="xisQ62mnSMioUk2DunuP-35">
          <mxGeometry x="12" y="80" width="10" height="10" as="geometry" />
        </mxCell>
        <mxCell id="xisQ62mnSMioUk2DunuP-45" value="" style="sketch=0;outlineConnect=0;fontColor=#232F3E;gradientColor=none;fillColor=#232F3D;strokeColor=none;dashed=0;verticalLabelPosition=bottom;verticalAlign=top;align=right;html=1;fontSize=12;fontStyle=0;aspect=fixed;pointerEvents=1;shape=mxgraph.aws4.user;" vertex="1" parent="xisQ62mnSMioUk2DunuP-35">
          <mxGeometry x="12" y="56" width="10" height="10" as="geometry" />
        </mxCell>
        <mxCell id="xisQ62mnSMioUk2DunuP-43" value="" style="sketch=0;outlineConnect=0;fontColor=#232F3E;gradientColor=none;fillColor=#232F3D;strokeColor=none;dashed=0;verticalLabelPosition=bottom;verticalAlign=top;align=right;html=1;fontSize=12;fontStyle=0;aspect=fixed;pointerEvents=1;shape=mxgraph.aws4.user;" vertex="1" parent="xisQ62mnSMioUk2DunuP-35">
          <mxGeometry x="12" y="32" width="10" height="10" as="geometry" />
        </mxCell>
      </root>
    </mxGraphModel>
  </diagram>
  <diagram id="D9Mjf_SdF486VH_Ah93Z" name="Page-2">
    <mxGraphModel dx="1195" dy="763" grid="1" gridSize="10" guides="1" tooltips="1" connect="1" arrows="1" fold="1" page="1" pageScale="1" pageWidth="850" pageHeight="1100" math="0" shadow="0">
      <root>
        <mxCell id="0" />
        <mxCell id="1" parent="0" />
        <mxCell id="wpeYx1dOgT6k1dTcUZIM-1" value="" style="sketch=0;aspect=fixed;pointerEvents=1;shadow=0;dashed=0;html=1;strokeColor=none;labelPosition=center;verticalLabelPosition=bottom;verticalAlign=top;align=center;fillColor=#00188D;shape=mxgraph.mscae.enterprise.folder" vertex="1" parent="1">
          <mxGeometry x="170" y="180" width="50" height="43" as="geometry" />
        </mxCell>
        <mxCell id="GJA3_c4S2s5WGqSm8-ZM-3" value="" style="sketch=0;outlineConnect=0;fontColor=#232F3E;gradientColor=none;fillColor=#232F3D;strokeColor=none;dashed=0;verticalLabelPosition=bottom;verticalAlign=top;align=center;html=1;fontSize=12;fontStyle=0;aspect=fixed;pointerEvents=1;shape=mxgraph.aws4.office_building;" vertex="1" parent="1">
          <mxGeometry x="350" y="50" width="50" height="78" as="geometry" />
        </mxCell>
        <mxCell id="GJA3_c4S2s5WGqSm8-ZM-4" value="" style="rounded=0;whiteSpace=wrap;html=1;strokeColor=none;" vertex="1" parent="1">
          <mxGeometry x="150" y="340" width="170" height="100" as="geometry" />
        </mxCell>
        <mxCell id="GJA3_c4S2s5WGqSm8-ZM-1" value="" style="image;sketch=0;aspect=fixed;html=1;points=[];align=center;fontSize=12;image=img/lib/mscae/Migration_Projects.svg;" vertex="1" parent="1">
          <mxGeometry x="160" y="350" width="50" height="32" as="geometry" />
        </mxCell>
        <mxCell id="5xLSB9yqDbNH4mHTM56W-1" value="User 1" style="sketch=0;points=[[0,0,0],[0.25,0,0],[0.5,0,0],[0.75,0,0],[1,0,0],[1,0.25,0],[1,0.5,0],[1,0.75,0],[1,1,0],[0.75,1,0],[0.5,1,0],[0.25,1,0],[0,1,0],[0,0.75,0],[0,0.5,0],[0,0.25,0]];rounded=1;absoluteArcSize=1;arcSize=2;html=1;strokeColor=none;gradientColor=none;shadow=0;dashed=0;fontSize=12;fontColor=#9E9E9E;align=left;verticalAlign=top;spacing=10;spacingTop=-4;whiteSpace=wrap;" vertex="1" parent="1">
          <mxGeometry x="70" y="58" width="120" height="70" as="geometry" />
        </mxCell>
      </root>
    </mxGraphModel>
  </diagram>
</mxfile>
